<svg version="1.1" xmlns="http://www.w3.org/2000/svg" viewBox="0 0 566.671875 444.83203125" width="1133.34375" height="889.6640625">
  <!-- svg-source:excalidraw -->
  
  <defs>
    <style>
      @font-face {
        font-family: "Virgil";
        src: url("https://excalidraw.com/Virgil.woff2");
      }
      @font-face {
        font-family: "Cascadia";
        src: url("https://excalidraw.com/Cascadia.woff2");
      }
    </style>
  </defs>
  <rect x="0" y="0" width="566.671875" height="444.83203125" fill="#ffffff"></rect><g stroke-linecap="round" transform="translate(10 45.0078125) rotate(0 121.0234375 193.65625)"><path d="M0.07 -1.07 C61.43 1.84, 125.12 0.68, 241.37 -0.38 M0.12 0.16 C67.4 0.95, 136.33 1.03, 241.71 0.76 M243.09 0.75 C242.08 134.6, 241.86 271.99, 241.56 387.76 M242.04 -0.26 C243.48 91.14, 244.34 180.73, 241.9 387.69 M242.15 387.62 C162.41 389.43, 79.67 389.72, 1.43 388.3 M242.22 386.76 C150.63 386.24, 59.22 386.35, -0.78 386.97 M0.3 386.38 C2.21 233.29, 1.33 79.13, 0.08 -0.27 M-0.54 387.37 C-1.88 286.79, -1.01 185.01, 0.19 0.06" stroke="#000000" stroke-width="1" fill="none"></path></g><g transform="translate(52.18359375 69.3046875) rotate(0 11.5 12.5)"><text x="0" y="18" font-family="Virgil, Segoe UI Emoji" font-size="20px" fill="#000000" text-anchor="start" style="white-space: pre;" direction="ltr">T1</text></g><g transform="translate(28.56640625 109.58984375) rotate(0 39 75)"><text x="0" y="18" font-family="Virgil, Segoe UI Emoji" font-size="20px" fill="#000000" text-anchor="start" style="white-space: pre;" direction="ltr">read(A)</text><text x="0" y="43" font-family="Virgil, Segoe UI Emoji" font-size="20px" fill="#000000" text-anchor="start" style="white-space: pre;" direction="ltr">A=A-5</text><text x="0" y="68" font-family="Virgil, Segoe UI Emoji" font-size="20px" fill="#000000" text-anchor="start" style="white-space: pre;" direction="ltr">write(A)</text><text x="0" y="93" font-family="Virgil, Segoe UI Emoji" font-size="20px" fill="#000000" text-anchor="start" style="white-space: pre;" direction="ltr">read(B)</text><text x="0" y="118" font-family="Virgil, Segoe UI Emoji" font-size="20px" fill="#000000" text-anchor="start" style="white-space: pre;" direction="ltr">B=B+5</text><text x="0" y="143" font-family="Virgil, Segoe UI Emoji" font-size="20px" fill="#000000" text-anchor="start" style="white-space: pre;" direction="ltr">write(B)</text></g><g transform="translate(181.86328125 65.84375) rotate(0 15.5 12.5)"><text x="0" y="18" font-family="Virgil, Segoe UI Emoji" font-size="20px" fill="#000000" text-anchor="start" style="white-space: pre;" direction="ltr">T2</text></g><g transform="translate(157.44140625 271.01171875) rotate(0 39 75)"><text x="0" y="18" font-family="Virgil, Segoe UI Emoji" font-size="20px" fill="#000000" text-anchor="start" style="white-space: pre;" direction="ltr">read(A)</text><text x="0" y="43" font-family="Virgil, Segoe UI Emoji" font-size="20px" fill="#000000" text-anchor="start" style="white-space: pre;" direction="ltr">A=A-5</text><text x="0" y="68" font-family="Virgil, Segoe UI Emoji" font-size="20px" fill="#000000" text-anchor="start" style="white-space: pre;" direction="ltr">write(A)</text><text x="0" y="93" font-family="Virgil, Segoe UI Emoji" font-size="20px" fill="#000000" text-anchor="start" style="white-space: pre;" direction="ltr">read(B)</text><text x="0" y="118" font-family="Virgil, Segoe UI Emoji" font-size="20px" fill="#000000" text-anchor="start" style="white-space: pre;" direction="ltr">B=B+5</text><text x="0" y="143" font-family="Virgil, Segoe UI Emoji" font-size="20px" fill="#000000" text-anchor="start" style="white-space: pre;" direction="ltr">write(B)</text></g><g stroke-linecap="round"><g transform="translate(136.078125 99.015625) rotate(0 -0.8622223915765517 157.97655061183966)"><path d="M1 0.92 C0.79 53.58, -1.59 263.25, -2.07 315.59 M0.07 0.36 C-0.18 52.69, -2.34 261.1, -2.73 313.75" stroke="#000000" stroke-width="1" fill="none"></path></g></g><g transform="translate(12.02734375 10) rotate(0 119 14.5)"><text x="0" y="21" font-family="Virgil, Segoe UI Emoji" font-size="20px" fill="#000000" text-anchor="start" style="white-space: pre;" direction="ltr">先执行T1,再执行T2的情况</text></g><g stroke-linecap="round" transform="translate(314.625 47.51953125) rotate(0 121.0234375 193.65625)"><path d="M1.33 -0.73 C66.11 -0.76, 130.18 0.7, 242.89 1.53 M0.29 -0.68 C62.26 -1.72, 125.55 -1.18, 242.49 0.53 M241.87 0.75 C241.11 152.17, 241.37 301.85, 241.15 387.95 M242.63 -0.53 C242.59 113.24, 242.31 226.71, 241.56 387.27 M242.78 387.45 C147.2 389.01, 50.18 389.59, -1.59 387.29 M241.72 387.88 C171.51 388.91, 101.43 387.56, 0.42 387.29 M-0.15 386.95 C1.03 282.71, 2.75 177.82, -1.12 -0.8 M-0.05 387.8 C0.15 266.16, 0.02 146.01, 0.57 -0.35" stroke="#000000" stroke-width="1" fill="none"></path></g><g transform="translate(356.80859375 71.81640625) rotate(0 15.5 12.5)"><text x="0" y="18" font-family="Virgil, Segoe UI Emoji" font-size="20px" fill="#000000" text-anchor="start" style="white-space: pre;" direction="ltr">T2</text></g><g transform="translate(333.19140625 112.1015625) rotate(0 39 75)"><text x="0" y="18" font-family="Virgil, Segoe UI Emoji" font-size="20px" fill="#000000" text-anchor="start" style="white-space: pre;" direction="ltr">read(A)</text><text x="0" y="43" font-family="Virgil, Segoe UI Emoji" font-size="20px" fill="#000000" text-anchor="start" style="white-space: pre;" direction="ltr">A=A-5</text><text x="0" y="68" font-family="Virgil, Segoe UI Emoji" font-size="20px" fill="#000000" text-anchor="start" style="white-space: pre;" direction="ltr">write(A)</text><text x="0" y="93" font-family="Virgil, Segoe UI Emoji" font-size="20px" fill="#000000" text-anchor="start" style="white-space: pre;" direction="ltr">read(B)</text><text x="0" y="118" font-family="Virgil, Segoe UI Emoji" font-size="20px" fill="#000000" text-anchor="start" style="white-space: pre;" direction="ltr">B=B+5</text><text x="0" y="143" font-family="Virgil, Segoe UI Emoji" font-size="20px" fill="#000000" text-anchor="start" style="white-space: pre;" direction="ltr">write(B)</text></g><g transform="translate(486.48828125 68.35546875) rotate(0 11.5 12.5)"><text x="0" y="18" font-family="Virgil, Segoe UI Emoji" font-size="20px" fill="#000000" text-anchor="start" style="white-space: pre;" direction="ltr">T1</text></g><g transform="translate(462.06640625 273.5234375) rotate(0 39 75)"><text x="0" y="18" font-family="Virgil, Segoe UI Emoji" font-size="20px" fill="#000000" text-anchor="start" style="white-space: pre;" direction="ltr">read(A)</text><text x="0" y="43" font-family="Virgil, Segoe UI Emoji" font-size="20px" fill="#000000" text-anchor="start" style="white-space: pre;" direction="ltr">A=A-5</text><text x="0" y="68" font-family="Virgil, Segoe UI Emoji" font-size="20px" fill="#000000" text-anchor="start" style="white-space: pre;" direction="ltr">write(A)</text><text x="0" y="93" font-family="Virgil, Segoe UI Emoji" font-size="20px" fill="#000000" text-anchor="start" style="white-space: pre;" direction="ltr">read(B)</text><text x="0" y="118" font-family="Virgil, Segoe UI Emoji" font-size="20px" fill="#000000" text-anchor="start" style="white-space: pre;" direction="ltr">B=B+5</text><text x="0" y="143" font-family="Virgil, Segoe UI Emoji" font-size="20px" fill="#000000" text-anchor="start" style="white-space: pre;" direction="ltr">write(B)</text></g><g stroke-linecap="round"><g transform="translate(440.703125 101.52734375) rotate(0 -0.8959832502621907 157.76787717430386)"><path d="M-0.89 0.27 C-1.27 53.1, -1.64 263.89, -2.01 316.16 M0.85 -0.63 C0.34 51.96, -1.81 262.08, -2.64 314.62" stroke="#000000" stroke-width="1" fill="none"></path></g></g><g transform="translate(316.65234375 12.51171875) rotate(0 119 14.5)"><text x="0" y="21" font-family="Virgil, Segoe UI Emoji" font-size="20px" fill="#000000" text-anchor="start" style="white-space: pre;" direction="ltr">先执行T2,再执行T1的情况</text></g></svg>